<?xml version="1.0" encoding="utf-8"?>
<!-- Uploaded to: SVG Repo, www.svgrepo.com, Generator: SVG Repo Mixer Tools -->
<svg width="800px" height="800px" viewBox="0 0 1024 1024" class="icon"  version="1.1" xmlns="http://www.w3.org/2000/svg"><path d="M605.866667 91.733333l17.066666 40.533334 44.8 4.266666-34.133333 27.733334 10.666667 44.8-38.4-23.466667-38.4 23.466667 10.666666-44.8-34.133333-27.733334 44.8-4.266666zM768 164.266667l14.933333 38.4 40.533334 2.133333-29.866667 25.6 8.533333 40.533333-34.133333-21.333333-34.133333 21.333333 8.533333-40.533333-29.866667-25.6 40.533334-2.133333zM418.133333 91.733333l-17.066666 40.533334-44.8 4.266666 34.133333 27.733334-10.666667 44.8 38.4-23.466667 38.4 23.466667-10.666666-44.8 34.133333-27.733334-44.8-4.266666zM256 164.266667l-14.933333 38.4-40.533334 2.133333 29.866667 25.6-8.533333 40.533333 34.133333-21.333333 34.133333 21.333333-8.533333-40.533333 29.866667-25.6-40.533334-2.133333z" fill="#3F51B5" /><path d="M896 874.666667H128V362.666667l384-128 384 128z" fill="#2196F3" /><path d="M661.333333 469.333333h128v106.666667h-128zM448 469.333333h128v106.666667h-128zM234.666667 469.333333h128v106.666667h-128zM661.333333 640h128v106.666667h-128zM234.666667 640h128v106.666667h-128zM426.666667 640h170.666666v277.333333h-170.666666zM512 192L128 320v42.666667l384-128 384 128v-42.666667z" fill="#7AC0F8" /><path d="M128 874.666667h768v42.666666H128z" fill="#7AC0F8" /></svg>