<?xml version="1.0" encoding="utf-8"?>
<!-- Uploaded to: SVG Repo, www.svgrepo.com, Generator: SVG Repo Mixer Tools -->
<svg width="800px" height="800px" viewBox="0 0 1024 1024" class="icon"  version="1.1" xmlns="http://www.w3.org/2000/svg"><path d="M512 76.8l17.066667 42.666667 44.8 2.133333-34.133334 29.866667 10.666667 42.666666L512 170.666667l-38.4 23.466666 10.666667-42.666666-34.133334-29.866667 44.8-2.133333zM682.666667 128l14.933333 38.4 40.533333 2.133333-29.866666 25.6 8.533333 40.533334-34.133333-21.333334-34.133334 21.333334 8.533334-40.533334-29.866667-25.6 40.533333-2.133333zM341.333333 128l14.933334 38.4 40.533333 2.133333-29.866667 25.6 8.533334 40.533334-34.133334-21.333334-34.133333 21.333334 8.533333-40.533334-29.866666-25.6 40.533333-2.133333z" fill="#2E7D32" /><path d="M896 874.666667H128V362.666667l384-128 384 128z" fill="#4CAF50" /><path d="M661.333333 469.333333h128v106.666667h-128zM448 469.333333h128v106.666667h-128zM234.666667 469.333333h128v106.666667h-128zM661.333333 640h128v106.666667h-128zM234.666667 640h128v106.666667h-128zM426.666667 640h170.666666v277.333333h-170.666666zM512 192L128 320v42.666667l384-128 384 128v-42.666667z" fill="#94CF96" /><path d="M128 874.666667h768v42.666666H128z" fill="#94CF96" /></svg>